<svg width="62" height="62" viewBox="0 0 62 62" fill="none" xmlns="http://www.w3.org/2000/svg">
<path d="M19.0295 37.6355L17.1825 38.6977L15.6377 31.1965L17.9772 29.851L23.684 34.9586L21.837 36.0208L17.8306 32.2458L17.7813 32.2741L19.0295 37.6355ZM17.2543 35.3465L20.7266 33.3494L21.4631 34.63L17.9908 36.6271L17.2543 35.3465ZM24.2912 34.6094L20.6653 28.3049L23.3866 26.7399C23.8545 26.4708 24.3129 26.3205 24.7618 26.289C25.2107 26.2575 25.6247 26.3457 26.0038 26.5538C26.3829 26.7618 26.701 27.0895 26.9583 27.5369C27.218 27.9884 27.3364 28.4269 27.3135 28.8524C27.2927 29.2768 27.1471 29.6719 26.8768 30.0376C26.6085 30.4022 26.2343 30.7226 25.7541 30.9988L24.1287 31.9336L23.3639 30.6037L24.6445 29.8672C24.8456 29.7515 25.0028 29.6284 25.1161 29.4977C25.2302 29.3637 25.2934 29.2195 25.3056 29.065C25.3198 28.9094 25.2756 28.7423 25.1729 28.5637C25.0691 28.3831 24.9457 28.2588 24.8028 28.1908C24.6607 28.1195 24.5026 28.0985 24.3282 28.1278C24.1547 28.1538 23.9674 28.2247 23.7663 28.3404L23.163 28.6874L26.0027 33.625L24.2912 34.6094ZM26.321 29.5912L29.5613 31.5784L27.702 32.6477L24.4986 30.6393L26.321 29.5912ZM26.4557 24.9748L28.5859 23.7496L32.1049 26.4778L32.1788 26.4353L31.5904 22.0217L33.7206 20.7965L37.3464 27.101L35.6718 28.0641L33.5756 24.4193L33.5263 24.4477L34.1905 28.8505L33.1808 29.4312L29.6951 26.6184L29.6458 26.6467L31.7562 30.3161L30.0815 31.2792L26.4557 24.9748ZM35.1525 21.8083L34.3593 20.4292L39.8388 17.2778L40.6319 18.6569L38.7357 19.7475L41.5683 24.6728L39.8814 25.643L37.0487 20.7177L35.1525 21.8083Z" fill="white"/>
<path d="M62 31C62 48.1208 48.1208 62 31 62C13.8792 62 0 48.1208 0 31C0 13.8792 13.8792 0 31 0C48.1208 0 62 13.8792 62 31ZM7.9285 31C7.9285 43.742 18.258 54.0715 31 54.0715C43.742 54.0715 54.0715 43.742 54.0715 31C54.0715 18.258 43.742 7.9285 31 7.9285C18.258 7.9285 7.9285 18.258 7.9285 31Z" fill="black" fill-opacity="0.71"/>
<path d="M23.9279 39.8776C23.4154 39.0998 23.6305 38.0539 24.4083 37.5414L38.9996 27.9279C39.7774 27.4154 40.8233 27.6305 41.3358 28.4083C41.9926 29.4052 41.4342 30.7501 40.2645 30.9887L32.4898 32.5744C31.9855 32.6773 31.5402 32.9706 31.2466 33.3935L26.7216 39.9115C26.0408 40.8921 24.5847 40.8745 23.9279 39.8776Z" fill="white" fill-opacity="0.92"/>
</svg>
