<svg width="69" height="61" viewBox="0 0 69 61" fill="none" xmlns="http://www.w3.org/2000/svg">
<path d="M46.4688 58V50.7273H49.608C50.1477 50.7273 50.62 50.8255 51.0249 51.022C51.4297 51.2185 51.7446 51.5014 51.9695 51.8707C52.1944 52.2401 52.3068 52.6828 52.3068 53.1989C52.3068 53.7197 52.1908 54.1589 51.9588 54.5163C51.7292 54.8738 51.406 55.1437 50.9893 55.326C50.575 55.5083 50.0909 55.5994 49.5369 55.5994H47.6619V54.0653H49.1392C49.3712 54.0653 49.5689 54.0369 49.7322 53.9801C49.898 53.9209 50.0246 53.8274 50.1122 53.6996C50.2022 53.5717 50.2472 53.4048 50.2472 53.1989C50.2472 52.9905 50.2022 52.8213 50.1122 52.6911C50.0246 52.5585 49.898 52.4614 49.7322 52.3999C49.5689 52.3359 49.3712 52.304 49.1392 52.304H48.4432V58H46.4688ZM50.7301 54.6619L52.5483 58H50.4034L48.6278 54.6619H50.7301ZM53.1484 50.7273H55.6058L57.2962 54.8466H57.3814L59.0717 50.7273H61.5291V58H59.5973V53.7955H59.5405L57.9212 57.9432H56.7564L55.1371 53.767H55.0803V58H53.1484V50.7273ZM62.266 52.3182V50.7273H68.587V52.3182H66.3995V58H64.4535V52.3182H62.266Z" fill="white" fill-opacity="0.52"/>
<path d="M11.2231 28.8532C12.5717 25.2183 16.6117 23.3649 20.2466 24.7135L9.58977 53.4363C8.24113 57.0712 4.20116 58.9246 0.566256 57.576L11.2231 28.8532Z" fill="white" fill-opacity="0.52"/>
<path d="M30.3912 41.1024C32.3297 41.1106 33.8945 42.6887 33.8864 44.6272C33.8782 46.5657 32.3002 48.1305 30.3617 48.1224L5.99999 48.02C6.01628 44.143 9.17242 41.0133 13.0494 41.0296L30.3912 41.1024Z" fill="white" fill-opacity="0.52"/>
<path d="M10.7447 3.22949C15.1031 1.44592 20.0822 3.53327 21.8658 7.89172L42.1968 57.5739C37.8384 59.3574 32.8593 57.2701 31.0757 52.9116L10.7447 3.22949Z" fill="white" fill-opacity="0.52"/>
</svg>
